# xmcd
#
# Track frame offsets: 
#        150
#        13425
#        27817
#        45892
#        68099
#        83526
#        101126
#        119346
#        137747
#        155987
#        175399
#        192834
#        215122
#        230587
#        248437
#
# Disc length: 3521 seconds
#
# Revision: 1
# Processed by: cddbd v1.5.2PL0 Copyright (c) Steve Scherf et al.
# Submitted via: ExactAudioCopy v0.99pb5
#
DISCID=cd0dbf0f
DTITLE=Various Artist - Country Gold - CD 1
DYEAR=2009
DGENRE=Country
TTITLE0=Emerson Drive - I should be sleeping
TTITLE1=Terri Clark - Poor, poor pitiful me
TTITLE2=Mark Wills - Wish you were here
TTITLE3=Lee Ann Womack - I hope you dance
TTITLE4=Billy Ray Cyrus - Achy breaky heart
TTITLE5=Reba McEntire - Is there life out there
TTITLE6=Darryl Worley - I miss my friend
TTITLE7=Joe Nichols - The impossible
TTITLE8=Trisha Yearwood - How do I live
TTITLE9=Gary Allan - Smoke rings in the dark
TTITLE10=Wynonna Judd - I saw the light
TTITLE11=LeAnn Rimes - How do I live
TTITLE12=Mark Chesnutt - Thank God for believers
TTITLE13=Pam Tillis - Maybe it was Memphis
TTITLE14=Marty Stuart And Travis Tritt - This one's gonna hurt you (fo
TTITLE14=r a long, long time)
EXTD=YEAR: 2009
EXTT0=
EXTT1=
EXTT2=
EXTT3=
EXTT4=
EXTT5=
EXTT6=
EXTT7=
EXTT8=
EXTT9=
EXTT10=
EXTT11=
EXTT12=
EXTT13=
EXTT14=
PLAYORDER=
